<?xml version="1.0" encoding="UTF-8"?>
<svg xmlns="http://www.w3.org/2000/svg" version="1.1" viewBox="0 0 340 340">
  <defs>
    <style>
      .cls-1 {
        fill: #000082;
      }

      .cls-2 {
        isolation: isolate;
      }

      .cls-3 {
        mix-blend-mode: multiply;
      }

      .cls-4 {
        fill: #00b3ff;
      }

      .cls-5 {
        fill: #ff0;
      }

      .cls-6 {
        fill: red;
      }

      .cls-7 {
        fill: #ff0082;
      }
    </style>
  </defs>
  <!-- Generator: Adobe Illustrator 28.7.1, SVG Export Plug-In . SVG Version: 1.2.0 Build 142)  -->
  <g class="cls-2">
    <g id="DL_x5F_Icon_x5F_Black_x5F_RGB">
      <g>
        <path d="M251.7,209.6l-6.5,11.3,34.3,19.8,6.5-11.3-34.3-19.8Z"/>
        <path d="M300.2,163.5h-39.6v13h39.6v-13Z"/>
        <path d="M279.5,99.3l-34.3,19.8,6.5,11.3,34.3-19.8-6.5-11.3Z"/>
        <path d="M229.5,54l-19.8,34.3,11.3,6.5,19.8-34.3-11.3-6.5Z"/>
        <path d="M176.5,39.8h-13v39.6h13v-39.6Z"/>
        <path d="M110.6,54l-11.3,6.5,19.8,34.3,11.3-6.5-19.8-34.3Z"/>
        <path d="M60.5,99.3l-6.5,11.3,34.3,19.8,6.5-11.3-34.3-19.8Z"/>
        <path d="M79.4,163.5h-39.6v13h39.6v-13Z"/>
        <path d="M88.3,209.6l-34.3,19.8,6.5,11.3,34.3-19.8-6.5-11.3Z"/>
        <path d="M119.1,245.2l-19.8,34.3,11.3,6.5,19.8-34.3-11.3-6.5Z"/>
        <path d="M176.5,260.6h-13v39.6h13v-39.6Z"/>
        <g class="cls-3">
          <path class="cls-5" d="M248.7,287.2l-19.8-34.3-2,1.1,17.6,30.5-9.3,5.4,2.2,3.8,11.3-6.5Z"/>
        </g>
        <g class="cls-3">
          <path class="cls-7" d="M224.7,250.3l-2,1.1,2.2,3.8,2-1.1-2.2-3.8Z"/>
        </g>
        <g class="cls-3">
          <path class="cls-7" d="M233.1,286.2l-2,1.1,2.2,3.8,2-1.1-2.2-3.8Z"/>
        </g>
        <g class="cls-3">
          <path class="cls-4" d="M222.8,251.4l-2.2-3.8-11.3,6.5,19.8,34.3,2-1.1-17.6-30.5,9.3-5.4Z"/>
        </g>
        <g class="cls-3">
          <path d="M225,255.2l-7.3,4.2,15.4,26.8,7.3-4.2-15.4-26.8Z"/>
        </g>
        <path class="cls-6" d="M226.9,254.1l-2,1.1,15.5,26.8-7.3,4.2,2.2,3.8,9.3-5.4-17.6-30.5Z"/>
        <path class="cls-1" d="M217.6,259.4l7.3-4.2-2.2-3.8-9.3,5.4,17.6,30.5,2-1.1-15.5-26.8Z"/>
      </g>
    </g>
  </g>
</svg>